STARTFONT 2.1
FONT -kiedtl-kikon-medium-r-normal--18-180-75-75-M-90-ISO10646-1
SIZE 18 75 75
FONTBOUNDINGBOX 9 18 0 -3
STARTPROPERTIES 19
FONTNAME_REGISTRY ""
FOUNDRY "kiedtl"
FAMILY_NAME "kikon"
WEIGHT_NAME "medium"
SLANT "r"
SETWIDTH_NAME "normal"
ADD_STYLE_NAME ""
PIXEL_SIZE 18
POINT_SIZE 180
RESOLUTION_X 75
RESOLUTION_Y 75
SPACING "C"
AVERAGE_WIDTH 90
CHARSET_REGISTRY "ISO10646"
CHARSET_ENCODING "1"
DESTINATION 1
FONT_ASCENT 15
FONT_DESCENT 3
_GBDFED_INFO "Edited with gbdfed 1.6."
ENDPROPERTIES
CHARS 223
STARTCHAR U+005
ENCODING 5
SWIDTH 480 0
DWIDTH 9 0
BBX 9 18 0 -3
BITMAP
0000
0000
0000
0000
0000
0000
0000
0000
0000
0000
0000
0000
0000
0000
0000
0000
0000
0000
ENDCHAR
STARTCHAR U+0020
ENCODING 32
SWIDTH 480 0
DWIDTH 9 0
BBX 9 18 0 -3
BITMAP
0000
0000
0000
0000
0000
0000
0000
0000
0000
0000
0000
0000
0000
0000
0000
0000
0000
0000
ENDCHAR
STARTCHAR U+0021
ENCODING 33
SWIDTH 480 0
DWIDTH 9 0
BBX 9 18 0 -3
BITMAP
0000
0000
0000
0000
0C00
0C00
0C00
0C00
0C00
0C00
0C00
0C00
0000
0C00
0C00
0000
0000
0000
ENDCHAR
STARTCHAR U+0022
ENCODING 34
SWIDTH 480 0
DWIDTH 9 0
BBX 9 18 0 -3
BITMAP
0000
0000
0000
1200
1200
1200
1200
0000
0000
0000
0000
0000
0000
0000
0000
0000
0000
0000
ENDCHAR
STARTCHAR U+0023
ENCODING 35
SWIDTH 480 0
DWIDTH 9 0
BBX 9 18 0 -3
BITMAP
0000
0000
0000
0000
0000
3600
3600
7F00
3600
3600
3600
7F00
3600
3600
0000
0000
0000
0000
ENDCHAR
STARTCHAR U+0024
ENCODING 36
SWIDTH 480 0
DWIDTH 9 0
BBX 9 18 0 -3
BITMAP
0000
0800
0800
3E00
6300
6000
6000
6000
3E00
0300
0300
0300
6300
3E00
0800
0800
0000
0000
ENDCHAR
STARTCHAR U+0025
ENCODING 37
SWIDTH 480 0
DWIDTH 9 0
BBX 9 18 0 -3
BITMAP
0000
0000
0000
0000
0000
0000
6100
6300
0600
0C00
1800
3000
6300
4300
0000
0000
0000
0000
ENDCHAR
STARTCHAR U+0026
ENCODING 38
SWIDTH 480 0
DWIDTH 9 0
BBX 9 18 0 -3
BITMAP
0000
0000
0000
0000
7C00
C000
C000
C000
C000
7F00
C600
C600
C600
C700
7900
0000
0000
0000
ENDCHAR
STARTCHAR U+0027
ENCODING 39
SWIDTH 480 0
DWIDTH 9 0
BBX 9 18 0 -3
BITMAP
0000
0000
0000
0800
0800
0800
0800
0000
0000
0000
0000
0000
0000
0000
0000
0000
0000
0000
ENDCHAR
STARTCHAR U+0028
ENCODING 40
SWIDTH 480 0
DWIDTH 9 0
BBX 9 18 0 -3
BITMAP
0000
0000
0700
0800
1000
3000
3000
3000
3000
3000
3000
3000
3000
3000
1000
0800
0700
0000
ENDCHAR
STARTCHAR U+0029
ENCODING 41
SWIDTH 480 0
DWIDTH 9 0
BBX 9 18 0 -3
BITMAP
0000
0000
3800
0400
0200
0300
0300
0300
0300
0300
0300
0300
0300
0300
0200
0400
3800
0000
ENDCHAR
STARTCHAR U+002a
ENCODING 42
SWIDTH 480 0
DWIDTH 9 0
BBX 9 18 0 -3
BITMAP
0000
0000
0000
0000
0000
0000
0800
4900
2A00
1C00
2A00
4900
0800
0000
0000
0000
0000
0000
ENDCHAR
STARTCHAR U+002b
ENCODING 43
SWIDTH 480 0
DWIDTH 9 0
BBX 9 18 0 -3
BITMAP
0000
0000
0000
0000
0000
0000
0800
0800
0800
7F00
0800
0800
0800
0000
0000
0000
0000
0000
ENDCHAR
STARTCHAR U+002c
ENCODING 44
SWIDTH 480 0
DWIDTH 9 0
BBX 9 18 0 -3
BITMAP
0000
0000
0000
0000
0000
0000
0000
0000
0000
0000
0000
0000
0000
0C00
0C00
0400
0800
0000
ENDCHAR
STARTCHAR U+002d
ENCODING 45
SWIDTH 480 0
DWIDTH 9 0
BBX 9 18 0 -3
BITMAP
0000
0000
0000
0000
0000
0000
0000
0000
0000
0000
7F00
0000
0000
0000
0000
0000
0000
0000
ENDCHAR
STARTCHAR U+002e
ENCODING 46
SWIDTH 480 0
DWIDTH 9 0
BBX 9 18 0 -3
BITMAP
0000
0000
0000
0000
0000
0000
0000
0000
0000
0000
0000
0000
0000
0C00
0C00
0000
0000
0000
ENDCHAR
STARTCHAR U+002f
ENCODING 47
SWIDTH 480 0
DWIDTH 9 0
BBX 9 18 0 -3
BITMAP
0000
0000
0000
0080
0080
0100
0100
0200
0200
0400
0400
0800
0800
1000
1000
0000
0000
0000
ENDCHAR
STARTCHAR U+0030
ENCODING 48
SWIDTH 480 0
DWIDTH 9 0
BBX 9 18 0 -3
BITMAP
0000
0000
0000
0000
3E00
6300
6300
6300
6B00
6B00
6B00
6300
6300
6300
3E00
0000
0000
0000
ENDCHAR
STARTCHAR U+0031
ENCODING 49
SWIDTH 480 0
DWIDTH 9 0
BBX 9 18 0 -3
BITMAP
0000
0000
0000
0000
1800
3800
1800
1800
1800
1800
1800
1800
1800
1800
1800
0000
0000
0000
ENDCHAR
STARTCHAR U+0032
ENCODING 50
SWIDTH 480 0
DWIDTH 9 0
BBX 9 18 0 -3
BITMAP
0000
0000
0000
0000
3E00
4300
0300
0300
0300
0600
0C00
1800
3000
6000
7F00
0000
0000
0000
ENDCHAR
STARTCHAR U+0033
ENCODING 51
SWIDTH 480 0
DWIDTH 9 0
BBX 9 18 0 -3
BITMAP
0000
0000
0000
0000
7F00
0600
0C00
1800
3E00
0300
0300
0300
0300
4200
3C00
0000
0000
0000
ENDCHAR
STARTCHAR U+0034
ENCODING 52
SWIDTH 480 0
DWIDTH 9 0
BBX 9 18 0 -3
BITMAP
0000
0000
0000
0000
0600
0E00
1600
2600
4600
4600
7F00
0600
0600
0600
0600
0000
0000
0000
ENDCHAR
STARTCHAR U+0035
ENCODING 53
SWIDTH 480 0
DWIDTH 9 0
BBX 9 18 0 -3
BITMAP
0000
0000
0000
0000
7F00
6000
6000
7E00
0300
0300
0300
0300
0300
4200
3C00
0000
0000
0000
ENDCHAR
STARTCHAR U+0036
ENCODING 54
SWIDTH 480 0
DWIDTH 9 0
BBX 9 18 0 -3
BITMAP
0000
0000
0000
0000
1E00
3000
6000
7E00
6300
6300
6300
6300
6300
6300
3E00
0000
0000
0000
ENDCHAR
STARTCHAR U+0037
ENCODING 55
SWIDTH 480 0
DWIDTH 9 0
BBX 9 18 0 -3
BITMAP
0000
0000
0000
0000
7E00
0600
0600
0600
0C00
1800
1800
1800
1800
1800
1800
0000
0000
0000
ENDCHAR
STARTCHAR U+0038
ENCODING 56
SWIDTH 480 0
DWIDTH 9 0
BBX 9 18 0 -3
BITMAP
0000
0000
0000
0000
3C00
6600
6600
6600
6600
3C00
6600
6600
6600
6600
3C00
0000
0000
0000
ENDCHAR
STARTCHAR U+0039
ENCODING 57
SWIDTH 480 0
DWIDTH 9 0
BBX 9 18 0 -3
BITMAP
0000
0000
0000
0000
3E00
6300
6300
6300
6300
6300
3F00
0300
0600
0C00
3800
0000
0000
0000
ENDCHAR
STARTCHAR U+003a
ENCODING 58
SWIDTH 480 0
DWIDTH 9 0
BBX 9 18 0 -3
BITMAP
0000
0000
0000
0000
0000
0000
0000
0C00
0C00
0000
0000
0000
0000
0C00
0C00
0000
0000
0000
ENDCHAR
STARTCHAR U+003b
ENCODING 59
SWIDTH 480 0
DWIDTH 9 0
BBX 9 18 0 -3
BITMAP
0000
0000
0000
0000
0000
0000
0000
0C00
0C00
0C00
0000
0000
0000
0C00
0C00
0400
0800
0000
ENDCHAR
STARTCHAR U+003c
ENCODING 60
SWIDTH 480 0
DWIDTH 9 0
BBX 9 18 0 -3
BITMAP
0000
0000
0000
0000
0000
0600
0C00
1800
3000
6000
3000
1800
0C00
0600
0000
0000
0000
0000
ENDCHAR
STARTCHAR U+003d
ENCODING 61
SWIDTH 480 0
DWIDTH 9 0
BBX 9 18 0 -3
BITMAP
0000
0000
0000
0000
0000
0000
0000
0000
7F00
0000
0000
0000
7F00
0000
0000
0000
0000
0000
ENDCHAR
STARTCHAR U+003e
ENCODING 62
SWIDTH 480 0
DWIDTH 9 0
BBX 9 18 0 -3
BITMAP
0000
0000
0000
0000
0000
6000
3000
1800
0C00
0600
0C00
1800
3000
6000
0000
0000
0000
0000
ENDCHAR
STARTCHAR U+003f
ENCODING 63
SWIDTH 480 0
DWIDTH 9 0
BBX 9 18 0 -3
BITMAP
0000
0000
0000
0000
3E00
4300
0300
0300
0600
0C00
1800
1800
0000
1800
1800
0000
0000
0000
ENDCHAR
STARTCHAR U+0040
ENCODING 64
SWIDTH 480 0
DWIDTH 9 0
BBX 9 18 0 -3
BITMAP
0000
0000
0000
0000
3E00
4100
4100
4F00
4900
4900
4900
4F00
4000
4100
3E00
0000
0000
0000
ENDCHAR
STARTCHAR U+0041
ENCODING 65
SWIDTH 480 0
DWIDTH 9 0
BBX 9 18 0 -3
BITMAP
0000
0000
0000
0000
3E00
6300
6300
6300
6300
7F00
6300
6300
6300
6300
6300
0000
0000
0000
ENDCHAR
STARTCHAR U+0042
ENCODING 66
SWIDTH 480 0
DWIDTH 9 0
BBX 9 18 0 -3
BITMAP
0000
0000
0000
0000
7E00
6300
6300
6300
6300
7E00
6300
6300
6300
6300
7E00
0000
0000
0000
ENDCHAR
STARTCHAR U+0043
ENCODING 67
SWIDTH 480 0
DWIDTH 9 0
BBX 9 18 0 -3
BITMAP
0000
0000
0000
0000
3E00
6100
6000
6000
6000
6000
6000
6000
6000
6100
3E00
0000
0000
0000
ENDCHAR
STARTCHAR U+0044
ENCODING 68
SWIDTH 480 0
DWIDTH 9 0
BBX 9 18 0 -3
BITMAP
0000
0000
0000
0000
7E00
6300
6300
6300
6300
6300
6300
6300
6300
6300
7E00
0000
0000
0000
ENDCHAR
STARTCHAR U+0045
ENCODING 69
SWIDTH 480 0
DWIDTH 9 0
BBX 9 18 0 -3
BITMAP
0000
0000
0000
0000
7F00
6000
6000
6000
6000
7C00
6000
6000
6000
6000
7F00
0000
0000
0000
ENDCHAR
STARTCHAR U+0046
ENCODING 70
SWIDTH 480 0
DWIDTH 9 0
BBX 9 18 0 -3
BITMAP
0000
0000
0000
0000
7F00
6000
6000
6000
6000
7C00
6000
6000
6000
6000
6000
0000
0000
0000
ENDCHAR
STARTCHAR U+0047
ENCODING 71
SWIDTH 480 0
DWIDTH 9 0
BBX 9 18 0 -3
BITMAP
0000
0000
0000
0000
3E00
6300
6000
6000
6000
6700
6300
6300
6300
6300
3E00
0000
0000
0000
ENDCHAR
STARTCHAR U+0048
ENCODING 72
SWIDTH 480 0
DWIDTH 9 0
BBX 9 18 0 -3
BITMAP
0000
0000
0000
0000
6300
6300
6300
6300
6300
7F00
6300
6300
6300
6300
6300
0000
0000
0000
ENDCHAR
STARTCHAR U+0049
ENCODING 73
SWIDTH 480 0
DWIDTH 9 0
BBX 9 18 0 -3
BITMAP
0000
0000
0000
0000
7E00
1800
1800
1800
1800
1800
1800
1800
1800
1800
7E00
0000
0000
0000
ENDCHAR
STARTCHAR U+004a
ENCODING 74
SWIDTH 480 0
DWIDTH 9 0
BBX 9 18 0 -3
BITMAP
0000
0000
0000
0000
0300
0300
0300
0300
0300
0300
6300
6300
6300
6300
3E00
0000
0000
0000
ENDCHAR
STARTCHAR U+004b
ENCODING 75
SWIDTH 480 0
DWIDTH 9 0
BBX 9 18 0 -3
BITMAP
0000
0000
0000
0000
6100
6300
6600
6C00
7800
7000
7800
6C00
6600
6300
6100
0000
0000
0000
ENDCHAR
STARTCHAR U+004c
ENCODING 76
SWIDTH 480 0
DWIDTH 9 0
BBX 9 18 0 -3
BITMAP
0000
0000
0000
0000
6000
6000
6000
6000
6000
6000
6000
6000
6000
6000
7F00
0000
0000
0000
ENDCHAR
STARTCHAR U+004d
ENCODING 77
SWIDTH 480 0
DWIDTH 9 0
BBX 9 18 0 -3
BITMAP
0000
0000
0000
0000
6180
6180
7380
7F80
6D80
6D80
6180
6180
6180
6180
6180
0000
0000
0000
ENDCHAR
STARTCHAR U+004e
ENCODING 78
SWIDTH 480 0
DWIDTH 9 0
BBX 9 18 0 -3
BITMAP
0000
0000
0000
0000
4100
4100
6100
7100
7900
5D00
4F00
4700
4300
4100
4100
0000
0000
0000
ENDCHAR
STARTCHAR U+004f
ENCODING 79
SWIDTH 480 0
DWIDTH 9 0
BBX 9 18 0 -3
BITMAP
0000
0000
0000
0000
3E00
6300
6300
6300
6300
6300
6300
6300
6300
6300
3E00
0000
0000
0000
ENDCHAR
STARTCHAR U+0050
ENCODING 80
SWIDTH 480 0
DWIDTH 9 0
BBX 9 18 0 -3
BITMAP
0000
0000
0000
0000
7E00
6300
6300
6300
6300
7E00
6000
6000
6000
6000
6000
0000
0000
0000
ENDCHAR
STARTCHAR U+0051
ENCODING 81
SWIDTH 480 0
DWIDTH 9 0
BBX 9 18 0 -3
BITMAP
0000
0000
0000
0000
3E00
6300
6300
6300
6300
6300
6300
6300
6300
6300
3E00
0200
0300
0000
ENDCHAR
STARTCHAR U+0052
ENCODING 82
SWIDTH 480 0
DWIDTH 9 0
BBX 9 18 0 -3
BITMAP
0000
0000
0000
0000
7E00
6300
6300
6300
6300
6300
7E00
6300
6300
6300
6300
0000
0000
0000
ENDCHAR
STARTCHAR U+0053
ENCODING 83
SWIDTH 480 0
DWIDTH 9 0
BBX 9 18 0 -3
BITMAP
0000
0000
0000
0000
3E00
6300
6000
6000
6000
3E00
0300
0300
0300
6300
3E00
0000
0000
0000
ENDCHAR
STARTCHAR U+0054
ENCODING 84
SWIDTH 480 0
DWIDTH 9 0
BBX 9 18 0 -3
BITMAP
0000
0000
0000
0000
7F80
0C00
0C00
0C00
0C00
0C00
0C00
0C00
0C00
0C00
0C00
0000
0000
0000
ENDCHAR
STARTCHAR U+0055
ENCODING 85
SWIDTH 480 0
DWIDTH 9 0
BBX 9 18 0 -3
BITMAP
0000
0000
0000
0000
6300
6300
6300
6300
6300
6300
6300
6300
6300
6300
3E00
0000
0000
0000
ENDCHAR
STARTCHAR U+0056
ENCODING 86
SWIDTH 480 0
DWIDTH 9 0
BBX 9 18 0 -3
BITMAP
0000
0000
0000
0000
6300
6300
6300
6300
6300
6300
6300
6300
6300
6600
7C00
0000
0000
0000
ENDCHAR
STARTCHAR U+0057
ENCODING 87
SWIDTH 480 0
DWIDTH 9 0
BBX 9 18 0 -3
BITMAP
0000
0000
0000
0000
DB00
DB00
DB00
DB00
DB00
DB00
DB00
DB00
DB00
DE00
FC00
0000
0000
0000
ENDCHAR
STARTCHAR U+0058
ENCODING 88
SWIDTH 480 0
DWIDTH 9 0
BBX 9 18 0 -3
BITMAP
0000
0000
0000
0000
6300
6300
6300
6300
6300
3E00
6300
6300
6300
6300
6300
0000
0000
0000
ENDCHAR
STARTCHAR U+0059
ENCODING 89
SWIDTH 480 0
DWIDTH 9 0
BBX 9 18 0 -3
BITMAP
0000
0000
0000
0000
6600
6600
6600
6600
6600
3C00
1800
1800
1800
1800
1800
0000
0000
0000
ENDCHAR
STARTCHAR U+005a
ENCODING 90
SWIDTH 480 0
DWIDTH 9 0
BBX 9 18 0 -3
BITMAP
0000
0000
0000
0000
7E00
0600
0600
0E00
1C00
3800
7000
6000
6000
6000
7E00
0000
0000
0000
ENDCHAR
STARTCHAR U+005b
ENCODING 91
SWIDTH 480 0
DWIDTH 9 0
BBX 9 18 0 -3
BITMAP
0000
0000
3E00
3000
3000
3000
3000
3000
3000
3000
3000
3000
3000
3000
3000
3000
3E00
0000
ENDCHAR
STARTCHAR U+005c
ENCODING 92
SWIDTH 480 0
DWIDTH 9 0
BBX 9 18 0 -3
BITMAP
0000
0000
2000
2000
1000
1000
0800
0800
0400
0400
0200
0200
0100
0100
0000
0000
0000
0000
ENDCHAR
STARTCHAR U+005d
ENCODING 93
SWIDTH 480 0
DWIDTH 9 0
BBX 9 18 0 -3
BITMAP
0000
0000
1F00
0300
0300
0300
0300
0300
0300
0300
0300
0300
0300
0300
0300
0300
1F00
0000
ENDCHAR
STARTCHAR U+005e
ENCODING 94
SWIDTH 480 0
DWIDTH 9 0
BBX 9 18 0 -3
BITMAP
0000
0000
0400
0E00
1B00
3180
2080
0000
0000
0000
0000
0000
0000
0000
0000
0000
0000
0000
ENDCHAR
STARTCHAR U+005f
ENCODING 95
SWIDTH 480 0
DWIDTH 9 0
BBX 9 18 0 -3
BITMAP
0000
0000
0000
0000
0000
0000
0000
0000
0000
0000
0000
0000
0000
0000
FF80
0000
0000
0000
ENDCHAR
STARTCHAR U+0060
ENCODING 96
SWIDTH 480 0
DWIDTH 9 0
BBX 9 18 0 -3
BITMAP
0000
0000
0000
0000
2000
3000
1800
0C00
0600
0200
0000
0000
0000
0000
0000
0000
0000
0000
ENDCHAR
STARTCHAR U+0061
ENCODING 97
SWIDTH 480 0
DWIDTH 9 0
BBX 9 18 0 -3
BITMAP
0000
0000
0000
0000
0000
0000
0000
3E00
4300
3F00
6300
6300
6300
6300
3F00
0000
0000
0000
ENDCHAR
STARTCHAR U+0062
ENCODING 98
SWIDTH 480 0
DWIDTH 9 0
BBX 9 18 0 -3
BITMAP
0000
0000
0000
0000
0000
6000
6000
7E00
6300
6300
6300
6300
6300
6300
7E00
0000
0000
0000
ENDCHAR
STARTCHAR U+0063
ENCODING 99
SWIDTH 480 0
DWIDTH 9 0
BBX 9 18 0 -3
BITMAP
0000
0000
0000
0000
0000
0000
0000
3E00
6100
6000
6000
6000
6000
6100
3E00
0000
0000
0000
ENDCHAR
STARTCHAR U+0064
ENCODING 100
SWIDTH 480 0
DWIDTH 9 0
BBX 9 18 0 -3
BITMAP
0000
0000
0000
0000
0000
0300
0300
3F00
6300
6300
6300
6300
6300
6300
3F00
0000
0000
0000
ENDCHAR
STARTCHAR U+0065
ENCODING 101
SWIDTH 480 0
DWIDTH 9 0
BBX 9 18 0 -3
BITMAP
0000
0000
0000
0000
0000
0000
0000
3E00
6300
6300
6300
7F00
6000
6100
3E00
0000
0000
0000
ENDCHAR
STARTCHAR U+0066
ENCODING 102
SWIDTH 480 0
DWIDTH 9 0
BBX 9 18 0 -3
BITMAP
0000
0000
0000
0000
0000
3E00
6100
6100
6000
6000
7800
6000
6000
6000
6000
0000
0000
0000
ENDCHAR
STARTCHAR U+0067
ENCODING 103
SWIDTH 480 0
DWIDTH 9 0
BBX 9 18 0 -3
BITMAP
0000
0000
0000
0000
0000
0000
0000
3E00
6300
6300
6300
6300
6300
6300
3F00
0300
4300
3E00
ENDCHAR
STARTCHAR U+0068
ENCODING 104
SWIDTH 480 0
DWIDTH 9 0
BBX 9 18 0 -3
BITMAP
0000
0000
0000
0000
0000
6000
6000
7E00
6300
6300
6300
6300
6300
6300
6300
0000
0000
0000
ENDCHAR
STARTCHAR U+0069
ENCODING 105
SWIDTH 480 0
DWIDTH 9 0
BBX 9 18 0 -3
BITMAP
0000
0000
0000
0000
0000
1800
0000
3800
1800
1800
1800
1800
1800
1800
0E00
0000
0000
0000
ENDCHAR
STARTCHAR U+006a
ENCODING 106
SWIDTH 480 0
DWIDTH 9 0
BBX 9 18 0 -3
BITMAP
0000
0000
0000
0000
0600
0000
0E00
0600
0600
0600
0600
0600
0600
0600
4600
3C00
0000
0000
ENDCHAR
STARTCHAR U+006b
ENCODING 107
SWIDTH 480 0
DWIDTH 9 0
BBX 9 18 0 -3
BITMAP
0000
0000
0000
0000
0000
6000
6000
6600
6C00
7800
7000
7800
6C00
6600
6300
0000
0000
0000
ENDCHAR
STARTCHAR U+006c
ENCODING 108
SWIDTH 480 0
DWIDTH 9 0
BBX 9 18 0 -3
BITMAP
0000
0000
0000
0000
0000
3800
1800
1800
1800
1800
1800
1800
1800
1800
0E00
0000
0000
0000
ENDCHAR
STARTCHAR U+006d
ENCODING 109
SWIDTH 480 0
DWIDTH 9 0
BBX 9 18 0 -3
BITMAP
0000
0000
0000
0000
0000
0000
0000
7F00
6D80
6D80
6D80
6D80
6D80
6D80
6D80
0000
0000
0000
ENDCHAR
STARTCHAR U+006e
ENCODING 110
SWIDTH 480 0
DWIDTH 9 0
BBX 9 18 0 -3
BITMAP
0000
0000
0000
0000
0000
0000
0000
7E00
6300
6300
6300
6300
6300
6300
6300
0000
0000
0000
ENDCHAR
STARTCHAR U+006f
ENCODING 111
SWIDTH 480 0
DWIDTH 9 0
BBX 9 18 0 -3
BITMAP
0000
0000
0000
0000
0000
0000
0000
3E00
6300
6300
6300
6300
6300
6300
3E00
0000
0000
0000
ENDCHAR
STARTCHAR U+0070
ENCODING 112
SWIDTH 480 0
DWIDTH 9 0
BBX 9 18 0 -3
BITMAP
0000
0000
0000
0000
0000
0000
0000
7E00
6300
6300
6300
6300
6300
6300
7E00
6000
6000
6000
ENDCHAR
STARTCHAR U+0071
ENCODING 113
SWIDTH 480 0
DWIDTH 9 0
BBX 9 18 0 -3
BITMAP
0000
0000
0000
0000
0000
0000
0000
3F00
6300
6300
6300
6300
6300
6300
3F00
0300
0300
0300
ENDCHAR
STARTCHAR U+0072
ENCODING 114
SWIDTH 480 0
DWIDTH 9 0
BBX 9 18 0 -3
BITMAP
0000
0000
0000
0000
0000
0000
0000
6F00
7000
6000
6000
6000
6000
6000
6000
0000
0000
0000
ENDCHAR
STARTCHAR U+0073
ENCODING 115
SWIDTH 480 0
DWIDTH 9 0
BBX 9 18 0 -3
BITMAP
0000
0000
0000
0000
0000
0000
0000
3E00
6300
6000
3E00
0300
0300
6300
3E00
0000
0000
0000
ENDCHAR
STARTCHAR U+0074
ENCODING 116
SWIDTH 480 0
DWIDTH 9 0
BBX 9 18 0 -3
BITMAP
0000
0000
0000
0000
0000
0000
0000
7F00
1800
1800
1800
1800
1800
1800
0E00
0000
0000
0000
ENDCHAR
STARTCHAR U+0075
ENCODING 117
SWIDTH 480 0
DWIDTH 9 0
BBX 9 18 0 -3
BITMAP
0000
0000
0000
0000
0000
0000
0000
6300
6300
6300
6300
6300
6300
6300
3F00
0000
0000
0000
ENDCHAR
STARTCHAR U+0076
ENCODING 118
SWIDTH 480 0
DWIDTH 9 0
BBX 9 18 0 -3
BITMAP
0000
0000
0000
0000
0000
0000
0000
6300
6300
6300
6300
6300
6300
6600
7C00
0000
0000
0000
ENDCHAR
STARTCHAR U+0077
ENCODING 119
SWIDTH 480 0
DWIDTH 9 0
BBX 9 18 0 -3
BITMAP
0000
0000
0000
0000
0000
0000
0000
6D80
6D80
6D80
6D80
6D80
6D80
6F00
7E00
0000
0000
0000
ENDCHAR
STARTCHAR U+0078
ENCODING 120
SWIDTH 480 0
DWIDTH 9 0
BBX 9 18 0 -3
BITMAP
0000
0000
0000
0000
0000
0000
0000
6300
6300
6300
3E00
6300
6300
6300
6300
0000
0000
0000
ENDCHAR
STARTCHAR U+0079
ENCODING 121
SWIDTH 480 0
DWIDTH 9 0
BBX 9 18 0 -3
BITMAP
0000
0000
0000
0000
0000
0000
0000
6300
6300
6300
6300
6300
6300
6300
3F00
0300
4300
3E00
ENDCHAR
STARTCHAR U+007a
ENCODING 122
SWIDTH 480 0
DWIDTH 9 0
BBX 9 18 0 -3
BITMAP
0000
0000
0000
0000
0000
0000
0000
7E00
0600
0C00
1800
3000
6000
6000
7E00
0000
0000
0000
ENDCHAR
STARTCHAR U+007b
ENCODING 123
SWIDTH 480 0
DWIDTH 9 0
BBX 9 18 0 -3
BITMAP
0000
0000
0700
0C00
0C00
0C00
0C00
0C00
0C00
7C00
0C00
0C00
0C00
0C00
0C00
0C00
0700
0000
ENDCHAR
STARTCHAR U+007c
ENCODING 124
SWIDTH 480 0
DWIDTH 9 0
BBX 9 18 0 -3
BITMAP
0000
0000
1800
1800
1800
1800
1800
1800
1800
1800
1800
1800
1800
1800
1800
0000
0000
0000
ENDCHAR
STARTCHAR U+007d
ENCODING 125
SWIDTH 480 0
DWIDTH 9 0
BBX 9 18 0 -3
BITMAP
0000
0000
1C00
0600
0600
0600
0600
0600
0600
0780
0600
0600
0600
0600
0600
0600
1C00
0000
ENDCHAR
STARTCHAR U+007e
ENCODING 126
SWIDTH 480 0
DWIDTH 9 0
BBX 9 18 0 -3
BITMAP
0000
0000
0000
0000
0000
0000
0000
3800
7C80
4F80
0700
0000
0000
0000
0000
0000
0000
0000
ENDCHAR
STARTCHAR U+0097
ENCODING 151
SWIDTH 480 0
DWIDTH 9 0
BBX 9 18 0 -3
BITMAP
0000
0000
0000
0000
0000
0000
0000
0000
0000
0000
0000
0000
0000
0000
0000
0000
0000
0000
ENDCHAR
STARTCHAR U+00a1
ENCODING 161
SWIDTH 480 0
DWIDTH 9 0
BBX 9 18 0 -3
BITMAP
0000
0000
0000
0000
0000
0000
0C00
0C00
0000
0C00
0C00
0C00
0C00
0C00
0C00
0C00
0C00
0C00
ENDCHAR
STARTCHAR U+0063
ENCODING 162
SWIDTH 480 0
DWIDTH 9 0
BBX 9 18 0 -3
BITMAP
0000
0000
0000
0400
0400
1F00
2480
2400
2400
2400
2400
2480
1F00
0400
0400
0000
0000
0000
ENDCHAR
STARTCHAR sU+00a3
ENCODING 163
SWIDTH 480 0
DWIDTH 9 0
BBX 9 18 0 -3
BITMAP
0000
0000
0000
0000
1E00
3100
3000
3000
3000
7800
3000
3000
3000
3100
7E00
0000
0000
0000
ENDCHAR
STARTCHAR U+00a4
ENCODING 164
SWIDTH 480 0
DWIDTH 9 0
BBX 9 18 0 -3
BITMAP
0000
0000
0000
0000
0000
0000
5D00
2200
4100
4100
4100
2200
5D00
0000
0000
0000
0000
0000
ENDCHAR
STARTCHAR U+00a5
ENCODING 165
SWIDTH 480 0
DWIDTH 9 0
BBX 9 18 0 -3
BITMAP
0000
0000
0000
3300
3300
3300
3300
7380
1E00
7F80
0C00
0C00
0C00
0C00
0C00
0000
0000
0000
ENDCHAR
STARTCHAR U+00a6
ENCODING 166
SWIDTH 480 0
DWIDTH 9 0
BBX 9 18 0 -3
BITMAP
0000
0000
0000
0C00
0C00
0C00
0C00
0C00
0000
0000
0C00
0C00
0C00
0C00
0C00
0000
0000
0000
ENDCHAR
STARTCHAR U+0073
ENCODING 167
SWIDTH 480 0
DWIDTH 9 0
BBX 9 18 0 -3
BITMAP
7F00
4100
4000
4000
4000
4000
7F00
4100
4100
4100
4100
7F00
0100
0100
0100
0100
4100
7F00
ENDCHAR
STARTCHAR char168
ENCODING 168
SWIDTH 480 0
DWIDTH 9 0
BBX 9 18 0 -3
BITMAP
0000
1100
1100
0000
0000
0000
0000
0000
0000
0000
0000
0000
0000
0000
0000
0000
0000
0000
ENDCHAR
STARTCHAR U+0063
ENCODING 169
SWIDTH 480 0
DWIDTH 9 0
BBX 9 18 0 -3
BITMAP
0000
0000
0000
0000
3E00
4100
4D00
5100
5100
4D00
4100
3E00
0000
0000
0000
0000
0000
0000
ENDCHAR
STARTCHAR U+00aa
ENCODING 170
SWIDTH 480 0
DWIDTH 9 0
BBX 9 18 0 -3
BITMAP
0000
0000
0000
0000
0E00
1100
0F00
1100
1F00
0000
1F00
0000
0000
0000
0000
0000
0000
0000
ENDCHAR
STARTCHAR U+003e
ENCODING 171
SWIDTH 480 0
DWIDTH 9 0
BBX 9 18 0 -3
BITMAP
0000
0000
0000
0000
0000
0000
0900
1200
2400
4800
2400
1200
0900
0000
0000
0000
0000
0000
ENDCHAR
STARTCHAR char172
ENCODING 172
SWIDTH 480 0
DWIDTH 9 0
BBX 9 18 0 -3
BITMAP
0000
0000
0000
0000
0000
0000
0000
0000
0000
7F00
7F00
0100
0100
0000
0000
0000
0000
0000
ENDCHAR
STARTCHAR U+0063
ENCODING 174
SWIDTH 480 0
DWIDTH 9 0
BBX 9 18 0 -3
BITMAP
0000
0000
0000
0000
3E00
4100
4D00
5100
5100
5100
4100
3E00
0000
0000
0000
0000
0000
0000
ENDCHAR
STARTCHAR char175
ENCODING 175
SWIDTH 480 0
DWIDTH 9 0
BBX 9 18 0 -3
BITMAP
0000
1F00
0000
0000
0000
0000
0000
0000
0000
0000
0000
0000
0000
0000
0000
0000
0000
0000
ENDCHAR
STARTCHAR char176
ENCODING 176
SWIDTH 480 0
DWIDTH 9 0
BBX 9 18 0 -3
BITMAP
0000
0000
0E00
1100
1100
1100
0E00
0000
0000
0000
0000
0000
0000
0000
0000
0000
0000
0000
ENDCHAR
STARTCHAR U+002b
ENCODING 177
SWIDTH 480 0
DWIDTH 9 0
BBX 9 18 0 -3
BITMAP
0000
0000
0000
0000
0000
0000
0800
0800
0800
7F00
0800
0800
0800
0000
7F00
0000
0000
0000
ENDCHAR
STARTCHAR U+0075
ENCODING 181
SWIDTH 480 0
DWIDTH 9 0
BBX 9 18 0 -3
BITMAP
0000
0000
0000
0000
0000
0000
0000
6300
6300
6300
6300
6300
6300
6300
7F80
6000
6000
6000
ENDCHAR
STARTCHAR char182
ENCODING 182
SWIDTH 480 0
DWIDTH 9 0
BBX 9 18 0 -3
BITMAP
0000
0000
0000
1F00
3900
3900
3900
3900
1900
0900
0900
0900
0900
0900
0900
0000
0000
0000
ENDCHAR
STARTCHAR U+00b7
ENCODING 183
SWIDTH 480 0
DWIDTH 9 0
BBX 9 18 0 -3
BITMAP
0000
0000
0000
0000
0000
0000
0000
0000
0000
0C00
0C00
0000
0000
0000
0000
0000
0000
0000
ENDCHAR
STARTCHAR U+00aa
ENCODING 186
SWIDTH 480 0
DWIDTH 9 0
BBX 9 18 0 -3
BITMAP
0000
0000
0000
0000
0E00
1100
1100
1100
0E00
0000
1F00
0000
0000
0000
0000
0000
0000
0000
ENDCHAR
STARTCHAR U+003e
ENCODING 187
SWIDTH 480 0
DWIDTH 9 0
BBX 9 18 0 -3
BITMAP
0000
0000
0000
0000
0000
0000
4800
2400
1200
0900
1200
2400
4800
0000
0000
0000
0000
0000
ENDCHAR
STARTCHAR U+00c0
ENCODING 192
SWIDTH 480 0
DWIDTH 9 0
BBX 9 18 0 -3
BITMAP
3000
3800
0800
0000
3E00
6300
6300
6300
6300
7F00
6300
6300
6300
6300
6300
0000
0000
0000
ENDCHAR
STARTCHAR U+002b
ENCODING 215
SWIDTH 480 0
DWIDTH 9 0
BBX 9 18 0 -3
BITMAP
0000
0000
0000
0000
0000
0000
4100
2200
1400
0800
1400
2200
4100
0000
0000
0000
0000
0000
ENDCHAR
STARTCHAR U+00de
ENCODING 222
SWIDTH 480 0
DWIDTH 9 0
BBX 9 18 0 -3
BITMAP
0000
0000
0000
6000
6000
6000
7E00
6300
6300
6300
6300
7E00
6000
6000
6000
0000
0000
0000
ENDCHAR
STARTCHAR U+00e8
ENCODING 232
SWIDTH 480 0
DWIDTH 9 0
BBX 9 18 0 -3
BITMAP
0000
0000
0000
0000
3000
3800
0800
0000
3E00
6300
6300
6300
7F00
6000
6100
3E00
0000
0000
ENDCHAR
STARTCHAR U+00eb
ENCODING 235
SWIDTH 480 0
DWIDTH 9 0
BBX 9 18 0 -3
BITMAP
0000
0000
0000
0000
3600
3600
0000
3E00
6300
6300
6300
7F00
6000
6100
3E00
0000
0000
0000
ENDCHAR
STARTCHAR U+002b
ENCODING 247
SWIDTH 480 0
DWIDTH 9 0
BBX 9 18 0 -3
BITMAP
0000
0000
0000
0000
0000
0000
0800
0800
0000
7F00
0000
0800
0800
0000
0000
0000
0000
0000
ENDCHAR
STARTCHAR U+006f
ENCODING 248
SWIDTH 480 0
DWIDTH 9 0
BBX 9 18 0 -3
BITMAP
0000
0000
0000
0000
0000
0000
0080
3F80
6300
6700
6F00
7B00
7300
6300
7E00
0000
0000
0000
ENDCHAR
STARTCHAR U+00FE
ENCODING 254
SWIDTH 480 0
DWIDTH 9 0
BBX 9 18 0 -3
BITMAP
0000
0000
0000
0000
6000
6000
6000
7E00
6300
6300
6300
6300
6300
6300
7E00
6000
6000
6000
ENDCHAR
STARTCHAR U+006f
ENCODING 650
SWIDTH 480 0
DWIDTH 9 0
BBX 9 18 0 -3
BITMAP
0000
0000
0000
0000
0000
0000
7700
1400
3600
6300
6300
6300
6300
6300
3E00
0000
0000
0000
ENDCHAR
STARTCHAR U+0027
ENCODING 691
SWIDTH 480 0
DWIDTH 9 0
BBX 9 18 0 -3
BITMAP
0000
0000
0000
0E00
0800
0800
0800
0000
0000
0000
0000
0000
0000
0000
0000
0000
0000
0000
ENDCHAR
STARTCHAR U+0027
ENCODING 712
SWIDTH 480 0
DWIDTH 9 0
BBX 9 18 0 -3
BITMAP
0000
0000
0000
0800
0800
0800
0800
0000
0000
0000
0000
0000
0000
0000
0000
0000
0000
0000
ENDCHAR
STARTCHAR U+003a
ENCODING 720
SWIDTH 480 0
DWIDTH 9 0
BBX 9 18 0 -3
BITMAP
0000
0000
0000
0000
0000
0000
1C00
1C00
0800
0000
0000
0000
0800
1C00
1C00
0000
0000
0000
ENDCHAR
STARTCHAR U+0061
ENCODING 945
SWIDTH 480 0
DWIDTH 9 0
BBX 9 18 0 -3
BITMAP
0000
0000
0000
0000
0000
0000
0000
3D80
6700
6300
6300
6300
6300
6700
3D80
0000
0000
0000
ENDCHAR
STARTCHAR U+0062
ENCODING 946
SWIDTH 480 0
DWIDTH 9 0
BBX 9 18 0 -3
BITMAP
0000
0000
0000
3C00
6600
6600
6600
6400
7E00
6300
6300
6300
6300
6300
7E00
6000
6000
6000
ENDCHAR
STARTCHAR char8211
ENCODING 8211
SWIDTH 480 0
DWIDTH 9 0
BBX 9 18 0 -3
BITMAP
0000
0000
0000
0000
0000
0000
0000
0000
0000
1F00
0000
0000
0000
0000
0000
0000
0000
0000
ENDCHAR
STARTCHAR char8211
ENCODING 8212
SWIDTH 480 0
DWIDTH 9 0
BBX 9 18 0 -3
BITMAP
0000
0000
0000
0000
0000
0000
0000
0000
0000
FF00
0000
0000
0000
0000
0000
0000
0000
0000
ENDCHAR
STARTCHAR U+002c
ENCODING 8216
SWIDTH 480 0
DWIDTH 9 0
BBX 9 18 0 -3
BITMAP
0000
0400
0800
0C00
0C00
0000
0000
0000
0000
0000
0000
0000
0000
0000
0000
0000
0000
0000
ENDCHAR
STARTCHAR U+002c
ENCODING 8217
SWIDTH 480 0
DWIDTH 9 0
BBX 9 18 0 -3
BITMAP
0000
0000
0000
0C00
0C00
0400
0800
0000
0000
0000
0000
0000
0000
0000
0000
0000
0000
0000
ENDCHAR
STARTCHAR U+002c
ENCODING 8218
SWIDTH 480 0
DWIDTH 9 0
BBX 9 18 0 -3
BITMAP
0000
0000
0000
0000
0000
0000
0000
0000
0000
0000
0000
0000
0000
0C00
0C00
0400
0800
0000
ENDCHAR
STARTCHAR U+002c
ENCODING 8220
SWIDTH 480 0
DWIDTH 9 0
BBX 9 18 0 -3
BITMAP
0000
0900
1200
1B00
1B00
0000
0000
0000
0000
0000
0000
0000
0000
0000
0000
0000
0000
0000
ENDCHAR
STARTCHAR U+002c
ENCODING 8221
SWIDTH 480 0
DWIDTH 9 0
BBX 9 18 0 -3
BITMAP
0000
0000
0000
1B00
1B00
0900
1200
0000
0000
0000
0000
0000
0000
0000
0000
0000
0000
0000
ENDCHAR
STARTCHAR U+002c
ENCODING 8222
SWIDTH 480 0
DWIDTH 9 0
BBX 9 18 0 -3
BITMAP
0000
0000
0000
0000
0000
0000
0000
0000
0000
0000
0000
0000
0000
1B00
1B00
0900
1200
0000
ENDCHAR
STARTCHAR char8224
ENCODING 8224
SWIDTH 480 0
DWIDTH 9 0
BBX 9 18 0 -3
BITMAP
0000
0000
0000
0C00
0C00
0C00
7F80
7F80
0C00
0C00
0C00
0C00
0C00
0C00
0C00
0000
0000
0000
ENDCHAR
STARTCHAR char8224
ENCODING 8225
SWIDTH 480 0
DWIDTH 9 0
BBX 9 18 0 -3
BITMAP
0000
0000
0000
0C00
0C00
0C00
7F80
7F80
0C00
0C00
7F80
7F80
0C00
0C00
0C00
0000
0000
0000
ENDCHAR
STARTCHAR char8226
ENCODING 8226
SWIDTH 480 0
DWIDTH 9 0
BBX 9 18 0 -3
BITMAP
0000
0000
0000
0000
0000
0000
0000
1C00
3E00
3E00
3E00
1C00
0000
0000
0000
0000
0000
0000
ENDCHAR
STARTCHAR char8230
ENCODING 8230
SWIDTH 480 0
DWIDTH 9 0
BBX 9 18 0 -3
BITMAP
0000
0000
0000
0000
0000
0000
0000
0000
0000
0000
0000
0000
0000
0000
6D80
6D80
0000
0000
ENDCHAR
STARTCHAR U+0025
ENCODING 8240
SWIDTH 480 0
DWIDTH 9 0
BBX 9 18 0 -3
BITMAP
0000
0000
0000
0000
3000
4800
4800
3180
0600
1800
6000
0000
3180
4A00
4A00
3180
0000
0000
ENDCHAR
STARTCHAR U+0043
ENCODING 8364
SWIDTH 480 0
DWIDTH 9 0
BBX 9 18 0 -3
BITMAP
0000
0000
0000
0000
1F00
3080
3000
3000
7E00
3000
7E00
3000
3000
3080
1F00
0000
0000
0000
ENDCHAR
STARTCHAR U+0052
ENCODING 8477
SWIDTH 480 0
DWIDTH 9 0
BBX 9 18 0 -3
BITMAP
0000
0000
0000
0000
7E00
5300
5300
5300
5300
5300
5E00
5300
5300
5300
7300
0000
0000
0000
ENDCHAR
STARTCHAR char8482
ENCODING 8482
SWIDTH 480 0
DWIDTH 9 0
BBX 9 18 0 -3
BITMAP
0000
1F00
0400
0400
0400
0400
0000
1B00
1F00
1500
1100
0000
0000
0000
0000
0000
0000
0000
ENDCHAR
STARTCHAR char8594
ENCODING 8594
SWIDTH 480 0
DWIDTH 9 0
BBX 9 18 0 -3
BITMAP
0000
0000
0000
0000
0000
0000
0C00
0600
0300
7F80
0300
0600
0C00
0000
0000
0000
0000
0000
ENDCHAR
STARTCHAR U+0041
ENCODING 8704
SWIDTH 480 0
DWIDTH 9 0
BBX 9 18 0 -3
BITMAP
0000
0000
0000
0000
6300
6300
6300
6300
6300
7F00
6300
6300
6300
6300
3E00
0000
0000
0000
ENDCHAR
STARTCHAR char8712
ENCODING 8712
SWIDTH 480 0
DWIDTH 9 0
BBX 9 18 0 -3
BITMAP
0000
0000
0000
0000
1F00
2000
4000
4000
7E00
4000
4000
2000
1F00
0000
0000
0000
0000
0000
ENDCHAR
STARTCHAR char8719
ENCODING 8719
SWIDTH 480 0
DWIDTH 9 0
BBX 9 18 0 -3
BITMAP
0000
0000
0000
7F80
4080
4080
4080
4080
4080
4080
4080
4080
4080
4080
4080
4080
0000
0000
ENDCHAR
STARTCHAR char8721
ENCODING 8721
SWIDTH 480 0
DWIDTH 9 0
BBX 9 18 0 -3
BITMAP
0000
0000
0000
7F00
4000
4000
2000
1000
0800
0400
0800
1000
2000
4000
4000
7F00
0000
0000
ENDCHAR
STARTCHAR char8722
ENCODING 8722
SWIDTH 480 0
DWIDTH 9 0
BBX 9 18 0 -3
BITMAP
0000
0000
0000
0000
0000
0000
0000
0000
0000
3F80
0000
0000
0000
0000
0000
0000
0000
0000
ENDCHAR
STARTCHAR infinity
ENCODING 8734
SWIDTH 480 0
DWIDTH 9 0
BBX 9 18 0 -3
BITMAP
0000
0000
0000
0000
0000
0000
0000
0000
3300
4C80
4C80
3300
0000
0000
0000
0000
0000
0000
ENDCHAR
STARTCHAR char8743
ENCODING 8743
SWIDTH 480 0
DWIDTH 9 0
BBX 9 18 0 -3
BITMAP
0000
0000
0000
0800
0800
1C00
1400
1400
3600
2200
2200
6300
4100
4100
4100
0000
0000
0000
ENDCHAR
STARTCHAR char8744
ENCODING 8744
SWIDTH 480 0
DWIDTH 9 0
BBX 9 18 0 -3
BITMAP
0000
0000
0000
4100
4100
4100
6300
2200
2200
3600
1400
1400
1C00
0800
0800
0000
0000
0000
ENDCHAR
STARTCHAR U+006e
ENCODING 8745
SWIDTH 480 0
DWIDTH 9 0
BBX 9 18 0 -3
BITMAP
0000
0000
0000
0000
0000
0000
3E00
6300
6300
6300
6300
6300
6300
0000
0000
0000
0000
0000
ENDCHAR
STARTCHAR U+006e
ENCODING 8746
SWIDTH 480 0
DWIDTH 9 0
BBX 9 18 0 -3
BITMAP
0000
0000
0000
0000
0000
0000
6300
6300
6300
6300
6300
6300
3E00
0000
0000
0000
0000
0000
ENDCHAR
STARTCHAR char8750
ENCODING 8750
SWIDTH 480 0
DWIDTH 9 0
BBX 9 18 0 -3
BITMAP
0000
0200
0400
0400
0400
0400
0E00
1500
1500
1500
0E00
0400
0400
0400
0400
0400
0800
0000
ENDCHAR
STARTCHAR char8901
ENCODING 8901
SWIDTH 480 0
DWIDTH 9 0
BBX 9 18 0 -3
BITMAP
0000
0000
0000
0000
0000
0000
0000
0000
1C00
1C00
1C00
0000
0000
0000
0000
0000
0000
0000
ENDCHAR
STARTCHAR char8968
ENCODING 8968
SWIDTH 480 0
DWIDTH 9 0
BBX 9 18 0 -3
BITMAP
0000
0F80
0F80
0C00
0C00
0C00
0C00
0C00
0C00
0C00
0C00
0C00
0C00
0C00
0C00
0C00
0C00
0C00
ENDCHAR
STARTCHAR char8968
ENCODING 8969
SWIDTH 480 0
DWIDTH 9 0
BBX 9 18 0 -3
BITMAP
0000
7C00
7C00
0C00
0C00
0C00
0C00
0C00
0C00
0C00
0C00
0C00
0C00
0C00
0C00
0C00
0C00
0C00
ENDCHAR
STARTCHAR char8968
ENCODING 8970
SWIDTH 480 0
DWIDTH 9 0
BBX 9 18 0 -3
BITMAP
0C00
0C00
0C00
0C00
0C00
0C00
0C00
0C00
0C00
0C00
0C00
0C00
0C00
0C00
0C00
0F80
0F80
0000
ENDCHAR
STARTCHAR char8968
ENCODING 8971
SWIDTH 480 0
DWIDTH 9 0
BBX 9 18 0 -3
BITMAP
0C00
0C00
0C00
0C00
0C00
0C00
0C00
0C00
0C00
0C00
0C00
0C00
0C00
0C00
0C00
7C00
7C00
0000
ENDCHAR
STARTCHAR char9472
ENCODING 9472
SWIDTH 480 0
DWIDTH 9 0
BBX 9 18 0 -3
BITMAP
0000
0000
0000
0000
0000
0000
0000
0000
FF80
0000
0000
0000
0000
0000
0000
0000
0000
0000
ENDCHAR
STARTCHAR char9472
ENCODING 9473
SWIDTH 480 0
DWIDTH 9 0
BBX 9 18 0 -3
BITMAP
0000
0000
0000
0000
0000
0000
0000
FF80
FF80
FF80
0000
0000
0000
0000
0000
0000
0000
0000
ENDCHAR
STARTCHAR char9474
ENCODING 9474
SWIDTH 480 0
DWIDTH 9 0
BBX 9 18 0 -3
BITMAP
0800
0800
0800
0800
0800
0800
0800
0800
0800
0800
0800
0800
0800
0800
0800
0800
0800
0800
ENDCHAR
STARTCHAR char9474
ENCODING 9475
SWIDTH 480 0
DWIDTH 9 0
BBX 9 18 0 -3
BITMAP
1C00
1C00
1C00
1C00
1C00
1C00
1C00
1C00
1C00
1C00
1C00
1C00
1C00
1C00
1C00
1C00
1C00
1C00
ENDCHAR
STARTCHAR char9581
ENCODING 9487
SWIDTH 480 0
DWIDTH 9 0
BBX 9 18 0 -3
BITMAP
0000
0000
0000
0000
0000
0000
0000
1F80
1F80
1F80
1C00
1C00
1C00
1C00
1C00
1C00
1C00
1C00
ENDCHAR
STARTCHAR char9581
ENCODING 9491
SWIDTH 480 0
DWIDTH 9 0
BBX 9 18 0 -3
BITMAP
0000
0000
0000
0000
0000
0000
0000
FC00
FC00
FC00
1C00
1C00
1C00
1C00
1C00
1C00
1C00
1C00
ENDCHAR
STARTCHAR char9581
ENCODING 9495
SWIDTH 480 0
DWIDTH 9 0
BBX 9 18 0 -3
BITMAP
1C00
1C00
1C00
1C00
1C00
1C00
1C00
1F80
1F80
1F80
0000
0000
0000
0000
0000
0000
0000
0000
ENDCHAR
STARTCHAR char9581
ENCODING 9499
SWIDTH 480 0
DWIDTH 9 0
BBX 9 18 0 -3
BITMAP
1C00
1C00
1C00
1C00
1C00
1C00
1C00
FC00
FC00
FC00
0000
0000
0000
0000
0000
0000
0000
0000
ENDCHAR
STARTCHAR char9474
ENCODING 9500
SWIDTH 480 0
DWIDTH 9 0
BBX 9 18 0 -3
BITMAP
0800
0800
0800
0800
0800
0800
0800
0800
0F80
0800
0800
0800
0800
0800
0800
0800
0800
0800
ENDCHAR
STARTCHAR char9581
ENCODING 9507
SWIDTH 480 0
DWIDTH 9 0
BBX 9 18 0 -3
BITMAP
1C00
1C00
1C00
1C00
1C00
1C00
1C00
1F80
1F80
1F80
1C00
1C00
1C00
1C00
1C00
1C00
1C00
1C00
ENDCHAR
STARTCHAR char9474
ENCODING 9508
SWIDTH 480 0
DWIDTH 9 0
BBX 9 18 0 -3
BITMAP
0800
0800
0800
0800
0800
0800
0800
0800
F800
0800
0800
0800
0800
0800
0800
0800
0800
0800
ENDCHAR
STARTCHAR char9581
ENCODING 9515
SWIDTH 480 0
DWIDTH 9 0
BBX 9 18 0 -3
BITMAP
1C00
1C00
1C00
1C00
1C00
1C00
1C00
FC00
FC00
FC00
1C00
1C00
1C00
1C00
1C00
1C00
1C00
1C00
ENDCHAR
STARTCHAR char9472
ENCODING 9523
SWIDTH 480 0
DWIDTH 9 0
BBX 9 18 0 -3
BITMAP
0000
0000
0000
0000
0000
0000
0000
FF80
FF80
FF80
1C00
1C00
1C00
1C00
1C00
1C00
1C00
1C00
ENDCHAR
STARTCHAR char9581
ENCODING 9531
SWIDTH 480 0
DWIDTH 9 0
BBX 9 18 0 -3
BITMAP
1C00
1C00
1C00
1C00
1C00
1C00
1C00
FF80
FF80
FF80
0000
0000
0000
0000
0000
0000
0000
0000
ENDCHAR
STARTCHAR char9472
ENCODING 9532
SWIDTH 480 0
DWIDTH 9 0
BBX 9 18 0 -3
BITMAP
0800
0800
0800
0800
0800
0800
0800
0800
FF80
0800
0800
0800
0800
0800
0800
0800
0800
0800
ENDCHAR
STARTCHAR char9472
ENCODING 9535
SWIDTH 480 0
DWIDTH 9 0
BBX 9 18 0 -3
BITMAP
0800
0800
0800
0800
0800
0800
0800
FF80
FF80
FF80
0800
0800
0800
0800
0800
0800
0800
0800
ENDCHAR
STARTCHAR char9472
ENCODING 9536
SWIDTH 480 0
DWIDTH 9 0
BBX 9 18 0 -3
BITMAP
1C00
1C00
1C00
1C00
1C00
1C00
1C00
1C00
1C00
FF80
0800
0800
0800
0800
0800
0800
0800
0800
ENDCHAR
STARTCHAR char9472
ENCODING 9537
SWIDTH 480 0
DWIDTH 9 0
BBX 9 18 0 -3
BITMAP
0800
0800
0800
0800
0800
0800
0800
0800
0800
FF80
1C00
1C00
1C00
1C00
1C00
1C00
1C00
1C00
ENDCHAR
STARTCHAR char9472
ENCODING 9538
SWIDTH 480 0
DWIDTH 9 0
BBX 9 18 0 -3
BITMAP
1C00
1C00
1C00
1C00
1C00
1C00
1C00
1C00
1C00
FF80
1C00
1C00
1C00
1C00
1C00
1C00
1C00
1C00
ENDCHAR
STARTCHAR char9472
ENCODING 9552
SWIDTH 480 0
DWIDTH 9 0
BBX 9 18 0 -3
BITMAP
0000
0000
0000
0000
0000
0000
0000
FF80
0000
0000
FF80
0000
0000
0000
0000
0000
0000
0000
ENDCHAR
STARTCHAR char9581
ENCODING 9553
SWIDTH 480 0
DWIDTH 9 0
BBX 9 18 0 -3
BITMAP
1200
1200
1200
1200
1200
1200
1200
1200
1200
1200
1200
1200
1200
1200
1200
1200
1200
1200
ENDCHAR
STARTCHAR char9581
ENCODING 9554
SWIDTH 480 0
DWIDTH 9 0
BBX 9 18 0 -3
BITMAP
0000
0000
0000
0000
0000
0000
0000
0F80
0800
0800
0F80
0800
0800
0800
0800
0800
0800
0800
ENDCHAR
STARTCHAR char9581
ENCODING 9555
SWIDTH 480 0
DWIDTH 9 0
BBX 9 18 0 -3
BITMAP
0000
0000
0000
0000
0000
0000
0000
0000
0000
1F80
1200
1200
1200
1200
1200
1200
1200
1200
ENDCHAR
STARTCHAR char9581
ENCODING 9556
SWIDTH 480 0
DWIDTH 9 0
BBX 9 18 0 -3
BITMAP
0000
0000
0000
0000
0000
0000
0000
1F80
1000
1000
1380
1200
1200
1200
1200
1200
1200
1200
ENDCHAR
STARTCHAR char9581
ENCODING 9557
SWIDTH 480 0
DWIDTH 9 0
BBX 9 18 0 -3
BITMAP
0000
0000
0000
0000
0000
0000
0000
F800
0800
0800
F800
0800
0800
0800
0800
0800
0800
0800
ENDCHAR
STARTCHAR char9581
ENCODING 9558
SWIDTH 480 0
DWIDTH 9 0
BBX 9 18 0 -3
BITMAP
0000
0000
0000
0000
0000
0000
0000
0000
0000
FE00
1200
1200
1200
1200
1200
1200
1200
1200
ENDCHAR
STARTCHAR char9581
ENCODING 9559
SWIDTH 480 0
DWIDTH 9 0
BBX 9 18 0 -3
BITMAP
0000
0000
0000
0000
0000
0000
0000
FE00
0200
0200
F200
1200
1200
1200
1200
1200
1200
1200
ENDCHAR
STARTCHAR char9581
ENCODING 9560
SWIDTH 480 0
DWIDTH 9 0
BBX 9 18 0 -3
BITMAP
0800
0800
0800
0800
0800
0800
0800
0F80
0800
0800
0F80
0000
0000
0000
0000
0000
0000
0000
ENDCHAR
STARTCHAR char9581
ENCODING 9561
SWIDTH 480 0
DWIDTH 9 0
BBX 9 18 0 -3
BITMAP
1200
1200
1200
1200
1200
1200
1200
1200
1200
1F80
0000
0000
0000
0000
0000
0000
0000
0000
ENDCHAR
STARTCHAR char9581
ENCODING 9562
SWIDTH 480 0
DWIDTH 9 0
BBX 9 18 0 -3
BITMAP
1200
1200
1200
1200
1200
1200
1200
1380
1000
1000
1F80
0000
0000
0000
0000
0000
0000
0000
ENDCHAR
STARTCHAR char9581
ENCODING 9563
SWIDTH 480 0
DWIDTH 9 0
BBX 9 18 0 -3
BITMAP
0800
0800
0800
0800
0800
0800
0800
F800
0800
0800
F800
0000
0000
0000
0000
0000
0000
0000
ENDCHAR
STARTCHAR char9581
ENCODING 9564
SWIDTH 480 0
DWIDTH 9 0
BBX 9 18 0 -3
BITMAP
1200
1200
1200
1200
1200
1200
1200
1200
1200
FE00
0000
0000
0000
0000
0000
0000
0000
0000
ENDCHAR
STARTCHAR char9581
ENCODING 9565
SWIDTH 480 0
DWIDTH 9 0
BBX 9 18 0 -3
BITMAP
1200
1200
1200
1200
1200
1200
1200
F200
0200
0200
FE00
0000
0000
0000
0000
0000
0000
0000
ENDCHAR
STARTCHAR char9474
ENCODING 9566
SWIDTH 480 0
DWIDTH 9 0
BBX 9 18 0 -3
BITMAP
0800
0800
0800
0800
0800
0800
0F80
0800
0800
0F80
0800
0800
0800
0800
0800
0800
0800
0800
ENDCHAR
STARTCHAR char9581
ENCODING 9567
SWIDTH 480 0
DWIDTH 9 0
BBX 9 18 0 -3
BITMAP
1200
1200
1200
1200
1200
1200
1200
1200
1200
1380
1200
1200
1200
1200
1200
1200
1200
1200
ENDCHAR
STARTCHAR char9581
ENCODING 9568
SWIDTH 480 0
DWIDTH 9 0
BBX 9 18 0 -3
BITMAP
1200
1200
1200
1200
1200
1200
1380
1000
1000
1380
1200
1200
1200
1200
1200
1200
1200
1200
ENDCHAR
STARTCHAR char9474
ENCODING 9569
SWIDTH 480 0
DWIDTH 9 0
BBX 9 18 0 -3
BITMAP
0800
0800
0800
0800
0800
0800
F800
0800
0800
F800
0800
0800
0800
0800
0800
0800
0800
0800
ENDCHAR
STARTCHAR char9581
ENCODING 9570
SWIDTH 480 0
DWIDTH 9 0
BBX 9 18 0 -3
BITMAP
1200
1200
1200
1200
1200
1200
1200
1200
1200
F200
1200
1200
1200
1200
1200
1200
1200
1200
ENDCHAR
STARTCHAR char9581
ENCODING 9571
SWIDTH 480 0
DWIDTH 9 0
BBX 9 18 0 -3
BITMAP
1200
1200
1200
1200
1200
1200
F200
0200
0200
F200
1200
1200
1200
1200
1200
1200
1200
1200
ENDCHAR
STARTCHAR char9472
ENCODING 9572
SWIDTH 480 0
DWIDTH 9 0
BBX 9 18 0 -3
BITMAP
0000
0000
0000
0000
0000
0000
0000
FF80
0000
0000
FF80
0800
0800
0800
0800
0800
0800
0800
ENDCHAR
STARTCHAR char9472
ENCODING 9573
SWIDTH 480 0
DWIDTH 9 0
BBX 9 18 0 -3
BITMAP
0000
0000
0000
0000
0000
0000
0000
0000
0000
FF80
1200
1200
1200
1200
1200
1200
1200
1200
ENDCHAR
STARTCHAR char9472
ENCODING 9574
SWIDTH 480 0
DWIDTH 9 0
BBX 9 18 0 -3
BITMAP
0000
0000
0000
0000
0000
0000
0000
FF80
0000
0000
F380
1200
1200
1200
1200
1200
1200
1200
ENDCHAR
STARTCHAR char9472
ENCODING 9575
SWIDTH 480 0
DWIDTH 9 0
BBX 9 18 0 -3
BITMAP
0800
0800
0800
0800
0800
0800
0800
FF80
0000
0000
FF80
0000
0000
0000
0000
0000
0000
0000
ENDCHAR
STARTCHAR char9472
ENCODING 9576
SWIDTH 480 0
DWIDTH 9 0
BBX 9 18 0 -3
BITMAP
1200
1200
1200
1200
1200
1200
1200
1200
1200
7F80
0000
0000
0000
0000
0000
0000
0000
0000
ENDCHAR
STARTCHAR char9472
ENCODING 9577
SWIDTH 480 0
DWIDTH 9 0
BBX 9 18 0 -3
BITMAP
1200
1200
1200
1200
1200
1200
1200
F380
0000
0000
FF80
0000
0000
0000
0000
0000
0000
0000
ENDCHAR
STARTCHAR char9472
ENCODING 9578
SWIDTH 480 0
DWIDTH 9 0
BBX 9 18 0 -3
BITMAP
0800
0800
0800
0800
0800
0800
0800
FF80
0800
0800
FF80
0800
0800
0800
0800
0800
0800
0800
ENDCHAR
STARTCHAR char9581
ENCODING 9579
SWIDTH 480 0
DWIDTH 9 0
BBX 9 18 0 -3
BITMAP
1200
1200
1200
1200
1200
1200
1200
1200
1200
7F80
1200
1200
1200
1200
1200
1200
1200
1200
ENDCHAR
STARTCHAR char9581
ENCODING 9581
SWIDTH 480 0
DWIDTH 9 0
BBX 9 18 0 -3
BITMAP
0000
0000
0000
0000
0000
0000
0000
0000
0000
0780
0800
0800
0800
0800
0800
0800
0800
0800
ENDCHAR
STARTCHAR char9581
ENCODING 9582
SWIDTH 480 0
DWIDTH 9 0
BBX 9 18 0 -3
BITMAP
0000
0000
0000
0000
0000
0000
0000
0000
0000
F000
0800
0800
0800
0800
0800
0800
0800
0800
ENDCHAR
STARTCHAR char9581
ENCODING 9583
SWIDTH 480 0
DWIDTH 9 0
BBX 9 18 0 -3
BITMAP
0800
0800
0800
0800
0800
0800
0800
0800
0800
F000
0000
0000
0000
0000
0000
0000
0000
0000
ENDCHAR
STARTCHAR char9581
ENCODING 9584
SWIDTH 480 0
DWIDTH 9 0
BBX 9 18 0 -3
BITMAP
0800
0800
0800
0800
0800
0800
0800
0800
0800
0780
0000
0000
0000
0000
0000
0000
0000
0000
ENDCHAR
STARTCHAR char9581
ENCODING 9585
SWIDTH 480 0
DWIDTH 9 0
BBX 9 18 0 -3
BITMAP
0000
0000
0000
0000
0000
0000
0000
0000
0000
0000
0000
0000
0000
0000
0000
0000
0000
0000
ENDCHAR
STARTCHAR char9472
ENCODING 9596
SWIDTH 480 0
DWIDTH 9 0
BBX 9 18 0 -3
BITMAP
0000
0000
0000
0000
0000
0000
0000
0780
FF80
0780
0000
0000
0000
0000
0000
0000
0000
0000
ENDCHAR
STARTCHAR char9472
ENCODING 9597
SWIDTH 480 0
DWIDTH 9 0
BBX 9 18 0 -3
BITMAP
0800
0800
0800
0800
0800
0800
0800
0800
0800
1C00
1C00
1C00
1C00
1C00
1C00
1C00
1C00
1C00
ENDCHAR
STARTCHAR char9472
ENCODING 9598
SWIDTH 480 0
DWIDTH 9 0
BBX 9 18 0 -3
BITMAP
0000
0000
0000
0000
0000
0000
0000
FC00
FF80
FC00
0000
0000
0000
0000
0000
0000
0000
0000
ENDCHAR
STARTCHAR char9472
ENCODING 9599
SWIDTH 480 0
DWIDTH 9 0
BBX 9 18 0 -3
BITMAP
1C00
1C00
1C00
1C00
1C00
1C00
1C00
1C00
1C00
0800
0800
0800
0800
0800
0800
0800
0800
0800
ENDCHAR
STARTCHAR U+e005
ENCODING 57349
SWIDTH 480 0
DWIDTH 9 0
BBX 9 18 0 -3
BITMAP
0000
0000
0000
0000
0600
0C00
0800
7700
FF80
FE00
FC00
FE00
FF80
7F80
3700
0000
0000
0000
ENDCHAR
STARTCHAR U+e006
ENCODING 57350
SWIDTH 480 0
DWIDTH 9 0
BBX 9 18 0 -3
BITMAP
0000
0000
0000
0000
0000
0000
0000
0000
0000
0000
0000
0000
0000
0000
0000
0000
0000
0000
ENDCHAR
ENDFONT
